<svg xmlns="http://www.w3.org/2000/svg" version="1.1" xmlns:xlink="http://www.w3.org/1999/xlink" width="512" height="512" x="0" y="0" viewBox="0 0 682.667 682.667" style="enable-background:new 0 0 512 512" xml:space="preserve" class=""><g><defs><clipPath id="a" clipPathUnits="userSpaceOnUse"><path d="M0 512h512V0H0Z" fill="#000000" opacity="1" data-original="#000000"></path></clipPath></defs><g clip-path="url(#a)" transform="matrix(1.33333 0 0 -1.33333 0 682.667)"><path d="M0 0h-34.591c-2.228 0-4.335-.518-6.231-1.417.238-3.826.362-7.688.362-11.577v-28.651a72.58 72.58 0 0 0 12.184-13.474H0c8.063 0 14.661 6.598 14.661 14.661v25.798C14.661-6.597 8.063 0 0 0" style="fill-opacity:1;fill-rule:nonzero;stroke:none" transform="translate(489.872 326.08)" fill="#dfebfa" data-original="#dfebfa"></path><path d="M0 0v25.798c0 8.063 6.597 14.66 14.661 14.66h-32.282c-2.228 0-4.335-.519-6.231-1.417.238-3.826.362-7.688.362-11.577V-1.187a72.544 72.544 0 0 0 12.184-13.474h25.967C6.597-14.661 0-8.063 0 0" style="fill-opacity:1;fill-rule:nonzero;stroke:none" transform="translate(472.902 285.621)" fill="#b1dbfc" data-original="#b1dbfc" class=""></path><path d="M0 0Z" style="fill-opacity:1;fill-rule:nonzero;stroke:none" transform="translate(449.412 284.435)" fill="#b1dbfc" data-original="#b1dbfc" class=""></path><path d="M0 0v28.65c0 4.371.17 8.704.471 12.995h-33.043c-8.063 0-14.661-6.597-14.661-14.661V1.187c0-8.064 6.598-14.662 14.661-14.662h20.388A72.553 72.553 0 0 0 0 0" style="fill-opacity:1;fill-rule:nonzero;stroke:none" transform="translate(54.766 284.435)" fill="#dfebfa" data-original="#dfebfa"></path><path d="M0 0v25.798c0 8.063 6.597 14.66 14.661 14.66H-9.191c-8.063 0-14.661-6.597-14.661-14.66V0c0-8.063 6.598-14.661 14.661-14.661h20.388c.086.124.177.243.264.365C4.925-12.824 0-6.964 0 0" style="fill-opacity:1;fill-rule:nonzero;stroke:none" transform="translate(31.385 285.621)" fill="#b1dbfc" data-original="#b1dbfc" class=""></path><path d="M0 0h305.419c17.762 0 34.057-6.621 46.614-17.517v28.903c0 30.685-7.376 59.8-20.768 81.978-14.583 24.15-34.57 37.449-56.28 37.449H30.435c-21.71 0-41.697-13.299-56.281-37.449-13.392-22.178-20.768-51.293-20.768-81.978v-28.903C-34.056-6.621-17.762 0 0 0" style="fill-opacity:1;fill-rule:nonzero;stroke:none" transform="translate(99.38 300.658)" fill="#ff4756" data-original="#ff4756" class=""></path><path d="M0 0c0 30.687 7.376 59.8 20.768 81.979 14.584 24.149 34.57 37.449 56.28 37.449H44.893c-21.71 0-41.697-13.3-56.281-37.449C-24.78 59.8-32.156 30.687-32.156 0v-28.902C-23.099-21.044-12.093-15.427 0-12.896z" style="fill-opacity:1;fill-rule:nonzero;stroke:none" transform="translate(84.921 312.044)" fill="#fc2d39" data-original="#fc2d39"></path><path d="M0 0h305.419a70.5 70.5 0 0 0 21.378-3.308v14.694c0 26.079-6.068 50.488-17.084 68.734-9.827 16.273-22.161 25.235-34.728 25.235H30.435c-12.568 0-24.901-8.962-34.729-25.235-11.016-18.246-17.083-42.655-17.083-68.734V-3.308A70.49 70.49 0 0 0 0 0" style="fill-opacity:1;fill-rule:nonzero;stroke:none" transform="translate(99.38 300.658)" fill="#60b8fe" data-original="#60b8fe" class=""></path><path d="M0 0c0 26.079 6.067 50.488 17.084 68.733 9.827 16.274 22.16 25.237 34.728 25.237H19.656c-12.568 0-24.901-8.963-34.728-25.237C-26.088 50.488-32.156 26.079-32.156 0v-14.693a70.526 70.526 0 0 0 21.378 3.307H0Z" style="fill-opacity:1;fill-rule:nonzero;stroke:none" transform="translate(110.158 312.044)" fill="#23a8fe" data-original="#23a8fe"></path><path d="M0 0c-30.695 0-55.579-25.103-55.579-56.067 0-2.541.184-5.038.509-7.49h25.304a31.276 31.276 0 0 0-.91 7.49c0 17.09 13.734 30.945 30.676 30.945s30.676-13.855 30.676-30.945c0-2.583-.319-5.091-.91-7.49h25.305c.325 2.452.508 4.949.508 7.49C55.579-25.103 30.695 0 0 0" style="fill-opacity:1;fill-rule:nonzero;stroke:none" transform="translate(342.326 364.215)" fill="#23a8fe" data-original="#23a8fe"></path><path d="M0 0c-30.695 0-55.579-25.103-55.579-56.067 0-2.541.184-5.038.509-7.49h25.304a31.276 31.276 0 0 0-.91 7.49c0 17.09 13.734 30.945 30.676 30.945s30.676-13.855 30.676-30.945c0-2.583-.319-5.091-.91-7.49h25.305c.325 2.452.508 4.949.508 7.49C55.579-25.103 30.695 0 0 0" style="fill-opacity:1;fill-rule:nonzero;stroke:none" transform="translate(342.326 364.215)" fill="#23a8fe" data-original="#23a8fe"></path><path d="M0 0c4.923 20.237 20.732 36.149 40.812 41.068a55.201 55.201 0 0 1-13.157 1.594c-30.695 0-55.578-25.102-55.578-56.067 0-2.541.183-5.038.508-7.49H-2.11a31.226 31.226 0 0 0-.911 7.49A31.04 31.04 0 0 0 0 0" style="fill-opacity:1;fill-rule:nonzero;stroke:none" transform="translate(314.67 321.553)" fill="#0193fa" data-original="#0193fa"></path><path d="M0 0h-305.419c-39.422 0-71.678-32.255-71.678-71.678v-73.31a12.03 12.03 0 0 0 3.33.479h166.92c2.214 2.96 5.735 4.894 9.694 4.894h88.887c3.959 0 7.48-1.934 9.694-4.894h166.92c1.155 0 2.27-.174 3.33-.479v73.31C71.678-32.255 39.423 0 0 0" style="fill-opacity:1;fill-rule:nonzero;stroke:none" transform="translate(404.798 301.799)" fill="#ff656f" data-original="#ff656f" class=""></path><path d="M0 0c0 39.423 32.255 71.678 71.677 71.678H24.615c-39.423 0-71.678-32.255-71.678-71.678v-73.311c1.061.306 2.175.48 3.33.48H0Z" style="fill-opacity:1;fill-rule:nonzero;stroke:none" transform="translate(74.765 230.121)" fill="#ff4756" data-original="#ff4756" class=""></path><path d="M0 0a38.208 38.208 0 0 1 32.575 18.24l31.724 51.754H-168.8l31.723-51.754A38.209 38.209 0 0 1-104.502 0Z" style="fill-opacity:1;fill-rule:nonzero;stroke:none" transform="translate(304.34 231.805)" fill="#ff4756" data-original="#ff4756" class=""></path><path d="m0 0-31.723 51.754h-43.251L-43.25 0a38.208 38.208 0 0 1 32.575-18.24h43.25A38.209 38.209 0 0 0 0 0" style="fill-opacity:1;fill-rule:nonzero;stroke:none" transform="translate(210.513 250.045)" fill="#fc2d39" data-original="#fc2d39"></path><path d="M0 0c0-16.146-13.089-29.235-29.235-29.235S-58.47-16.146-58.47 0s13.089 29.234 29.235 29.234S0 16.146 0 0" style="fill-opacity:1;fill-rule:nonzero;stroke:none" transform="translate(441.124 229.885)" fill="#ffd301" data-original="#ffd301"></path><path d="M0 0c0-16.146-13.089-29.235-29.235-29.235S-58.47-16.146-58.47 0s13.089 29.234 29.235 29.234S0 16.146 0 0" style="fill-opacity:1;fill-rule:nonzero;stroke:none" transform="translate(121.524 229.885)" fill="#ffd301" data-original="#ffd301"></path><path d="M0 0c0 10.867 5.935 20.343 14.735 25.381a29.092 29.092 0 0 1-14.5 3.853C-15.911 29.234-29 16.146-29 0S-15.911-29.235.235-29.235a29.092 29.092 0 0 1 14.5 3.853C5.935-20.344 0-10.868 0 0" style="fill-opacity:1;fill-rule:nonzero;stroke:none" transform="translate(411.654 229.885)" fill="#ffc20c" data-original="#ffc20c"></path><path d="M0 0c0 10.867 5.935 20.343 14.735 25.381a29.094 29.094 0 0 1-14.5 3.853C-15.911 29.234-29 16.146-29 0S-15.911-29.235.235-29.235a29.094 29.094 0 0 1 14.5 3.853C5.935-20.344 0-10.868 0 0" style="fill-opacity:1;fill-rule:nonzero;stroke:none" transform="translate(92.054 229.885)" fill="#ffc20c" data-original="#ffc20c"></path><path d="M0 0v-32.063c0-8.166 6.681-14.846 14.846-14.846h65.696c8.166 0 14.846 6.68 14.846 14.846V0Z" style="fill-opacity:1;fill-rule:nonzero;stroke:none" transform="translate(371.723 127.438)" fill="#665e68" data-original="#665e68" class=""></path><path d="M0 0v32.063h-43.732V0c0-8.166 6.68-14.846 14.845-14.846h43.733C6.681-14.846 0-8.166 0 0" style="fill-opacity:1;fill-rule:nonzero;stroke:none" transform="translate(415.456 95.375)" fill="#544e55" data-original="#544e55"></path><path d="M0 0v-32.063c0-8.166 6.681-14.846 14.846-14.846h65.696c8.166 0 14.846 6.68 14.846 14.846V0Z" style="fill-opacity:1;fill-rule:nonzero;stroke:none" transform="translate(37.066 127.438)" fill="#665e68" data-original="#665e68" class=""></path><path d="M0 0v32.063h-43.732V0c0-8.166 6.68-14.846 14.845-14.846h43.733C6.681-14.846 0-8.166 0 0" style="fill-opacity:1;fill-rule:nonzero;stroke:none" transform="translate(80.8 95.375)" fill="#544e55" data-original="#544e55"></path><path d="M0 0v23.413c0 2.703.908 5.198 2.42 7.22H-165.5c-6.662 0-12.113-5.451-12.113-12.113V4.894c0-6.663 5.451-12.114 12.113-12.114H2.42A12.02 12.02 0 0 0 0 0" style="fill-opacity:1;fill-rule:nonzero;stroke:none" transform="translate(196.532 131.657)" fill="#dfebfa" data-original="#dfebfa"></path><path d="M0 0v13.626c0 6.662 5.451 12.113 12.113 12.113H-31.62c-6.662 0-12.113-5.451-12.113-12.113V0c0-6.662 5.451-12.113 12.113-12.113h43.733C5.451-12.113 0-6.662 0 0" style="fill-opacity:1;fill-rule:nonzero;stroke:none" transform="translate(62.651 136.55)" fill="#b1dbfc" data-original="#b1dbfc" class=""></path><path d="M0 0h-167.92a12.018 12.018 0 0 0 2.42-7.22v-23.413a12.02 12.02 0 0 0-2.42-7.22H0c6.662 0 12.113 5.452 12.113 12.114v13.626C12.113-5.451 6.662 0 0 0" style="fill-opacity:1;fill-rule:nonzero;stroke:none" transform="translate(473.146 162.29)" fill="#dfebfa" data-original="#dfebfa"></path><path d="M0 0h-94.888c-6.662 0-12.113 5.451-12.113 12.113v23.413c0 6.662 5.451 12.114 12.113 12.114H0c6.663 0 12.113-5.452 12.113-12.114V12.113C12.113 5.451 6.663 0 0 0" style="fill-opacity:1;fill-rule:nonzero;stroke:none" transform="translate(299.533 119.544)" fill="#b1dbfc" data-original="#b1dbfc" class=""></path><path d="M0 0v23.413c0 6.662 5.451 12.113 12.113 12.113h-43.732c-6.662 0-12.113-5.451-12.113-12.113V0c0-6.662 5.451-12.113 12.113-12.113h43.732C5.451-12.113 0-6.662 0 0" style="fill-opacity:1;fill-rule:nonzero;stroke:none" transform="translate(236.264 131.657)" fill="#8bcaff" data-original="#8bcaff"></path><path d="M0 0v-29.062c0-8.167 6.681-14.847 14.846-14.847h65.696c8.166 0 14.846 6.68 14.846 14.847V0Z" style="stroke-width:15;stroke-linecap:round;stroke-linejoin:round;stroke-miterlimit:10;stroke-dasharray:none;stroke-opacity:1" transform="translate(371.69 124.438)" fill="none" stroke="#050402" stroke-width="15" stroke-linecap="round" stroke-linejoin="round" stroke-miterlimit="10" stroke-dasharray="none" stroke-opacity="" data-original="#050402" class=""></path><path d="M0 0v-29.062c0-8.167 6.681-14.847 14.846-14.847h65.696c8.166 0 14.846 6.68 14.846 14.847V0Z" style="stroke-width:15;stroke-linecap:round;stroke-linejoin:round;stroke-miterlimit:10;stroke-dasharray:none;stroke-opacity:1" transform="translate(37.034 124.438)" fill="none" stroke="#050402" stroke-width="15" stroke-linecap="round" stroke-linejoin="round" stroke-miterlimit="10" stroke-dasharray="none" stroke-opacity="" data-original="#050402" class=""></path><path d="M0 0h-94.888c-6.662 0-12.113 5.451-12.113 12.113v23.413c0 6.662 5.451 12.114 12.113 12.114H0c6.663 0 12.113-5.452 12.113-12.114V12.113C12.113 5.451 6.663 0 0 0Z" style="stroke-width:15;stroke-linecap:round;stroke-linejoin:round;stroke-miterlimit:10;stroke-dasharray:none;stroke-opacity:1" transform="translate(299.5 119.544)" fill="none" stroke="#050402" stroke-width="15" stroke-linecap="round" stroke-linejoin="round" stroke-miterlimit="10" stroke-dasharray="none" stroke-opacity="" data-original="#050402" class=""></path><path d="M0 0v23.413c0 2.703.908 5.198 2.42 7.22H-161.5c-6.662 0-12.113-5.451-12.113-12.113V4.894c0-6.663 5.451-12.114 12.113-12.114H2.42A12.02 12.02 0 0 0 0 0Z" style="stroke-width:15;stroke-linecap:round;stroke-linejoin:round;stroke-miterlimit:10;stroke-dasharray:none;stroke-opacity:1" transform="translate(192.499 131.657)" fill="none" stroke="#050402" stroke-width="15" stroke-linecap="round" stroke-linejoin="round" stroke-miterlimit="10" stroke-dasharray="none" stroke-opacity="" data-original="#050402" class=""></path><path d="M0 0h-163.92a12.018 12.018 0 0 0 2.42-7.22v-23.413a12.02 12.02 0 0 0-2.42-7.22H0c6.662 0 12.113 5.452 12.113 12.114v13.626C12.113-5.451 6.662 0 0 0Z" style="stroke-width:15;stroke-linecap:round;stroke-linejoin:round;stroke-miterlimit:10;stroke-dasharray:none;stroke-opacity:1" transform="translate(473.113 162.29)" fill="none" stroke="#050402" stroke-width="15" stroke-linecap="round" stroke-linejoin="round" stroke-miterlimit="10" stroke-dasharray="none" stroke-opacity="" data-original="#050402" class=""></path><path d="M0 0h305.419c17.762 0 34.056-6.563 46.614-17.364v28.65c0 30.419-7.376 59.278-20.768 81.264-14.584 23.938-34.571 37.123-56.281 37.123H30.435c-21.71 0-41.697-13.185-56.281-37.123-13.392-21.986-20.768-50.845-20.768-81.264v-28.65C-34.056-6.563-17.762 0 0 0Z" style="stroke-width:15;stroke-linecap:round;stroke-linejoin:round;stroke-miterlimit:10;stroke-dasharray:none;stroke-opacity:1" transform="translate(99.347 301.799)" fill="none" stroke="#050402" stroke-width="15" stroke-linecap="round" stroke-linejoin="round" stroke-miterlimit="10" stroke-dasharray="none" stroke-opacity="" data-original="#050402" class=""></path><path d="M0 0c-30.695 0-55.579-24.884-55.579-55.579 0-2.52.184-4.994.508-7.424h25.305a30.731 30.731 0 0 0-.91 7.424c0 16.941 13.734 30.676 30.676 30.676s30.676-13.735 30.676-30.676c0-2.561-.319-5.047-.91-7.424h25.305c.324 2.43.508 4.904.508 7.424C55.579-24.884 30.695 0 0 0Z" style="stroke-width:15;stroke-linecap:round;stroke-linejoin:round;stroke-miterlimit:10;stroke-dasharray:none;stroke-opacity:1" transform="translate(342.293 364.802)" fill="none" stroke="#050402" stroke-width="15" stroke-linecap="round" stroke-linejoin="round" stroke-miterlimit="10" stroke-dasharray="none" stroke-opacity="" data-original="#050402" class=""></path><path d="M0 0h-32.591c-2.227 0-4.335-.518-6.231-1.417.239-3.826.363-7.688.363-11.577v-28.651h-.001a72.544 72.544 0 0 0 12.184-13.474H0c8.063 0 14.661 6.598 14.661 14.661v25.798C14.661-6.597 8.063 0 0 0Z" style="stroke-width:15;stroke-linecap:round;stroke-linejoin:round;stroke-miterlimit:10;stroke-dasharray:none;stroke-opacity:1" transform="translate(489.839 326.08)" fill="none" stroke="#050402" stroke-width="15" stroke-linecap="round" stroke-linejoin="round" stroke-miterlimit="10" stroke-dasharray="none" stroke-opacity="" data-original="#050402" class=""></path><path d="M0 0v28.65c0 4.371.17 8.704.471 12.995h-31.043c-8.063 0-14.661-6.597-14.661-14.661V1.187c0-8.064 6.598-14.662 14.661-14.662h18.388A72.518 72.518 0 0 0 0 0Z" style="stroke-width:15;stroke-linecap:round;stroke-linejoin:round;stroke-miterlimit:10;stroke-dasharray:none;stroke-opacity:1" transform="translate(52.733 284.435)" fill="none" stroke="#050402" stroke-width="15" stroke-linecap="round" stroke-linejoin="round" stroke-miterlimit="10" stroke-dasharray="none" stroke-opacity="" data-original="#050402" class=""></path><path d="M0 0a38.209 38.209 0 0 1 32.575 18.24l31.723 51.754h-233.099l31.724-51.754A38.208 38.208 0 0 1-104.502 0Z" style="stroke-width:15;stroke-linecap:round;stroke-linejoin:round;stroke-miterlimit:10;stroke-dasharray:none;stroke-opacity:1" transform="translate(304.307 231.805)" fill="none" stroke="#050402" stroke-width="15" stroke-linecap="round" stroke-linejoin="round" stroke-miterlimit="10" stroke-dasharray="none" stroke-opacity="" data-original="#050402" class=""></path><path d="M0 0h118.61" style="stroke-width:15;stroke-linecap:round;stroke-linejoin:round;stroke-miterlimit:10;stroke-dasharray:none;stroke-opacity:1" transform="translate(192.751 203.65)" fill="none" stroke="#050402" stroke-width="15" stroke-linecap="round" stroke-linejoin="round" stroke-miterlimit="10" stroke-dasharray="none" stroke-opacity="" data-original="#050402" class=""></path><path d="M0 0c0-16.146-13.089-29.235-29.235-29.235S-58.47-16.146-58.47 0s13.089 29.234 29.235 29.234S0 16.146 0 0Z" style="stroke-width:15;stroke-linecap:round;stroke-linejoin:round;stroke-miterlimit:10;stroke-dasharray:none;stroke-opacity:1" transform="translate(441.09 229.885)" fill="none" stroke="#050402" stroke-width="15" stroke-linecap="round" stroke-linejoin="round" stroke-miterlimit="10" stroke-dasharray="none" stroke-opacity="" data-original="#050402" class=""></path><path d="M0 0c0-16.146-13.089-29.235-29.235-29.235S-58.47-16.146-58.47 0s13.089 29.234 29.235 29.234S0 16.146 0 0Z" style="stroke-width:15;stroke-linecap:round;stroke-linejoin:round;stroke-miterlimit:10;stroke-dasharray:none;stroke-opacity:1" transform="translate(121.491 229.885)" fill="none" stroke="#050402" stroke-width="15" stroke-linecap="round" stroke-linejoin="round" stroke-miterlimit="10" stroke-dasharray="none" stroke-opacity="" data-original="#050402" class=""></path><path d="M0 0h-108.719c-12.568 0-24.901-8.884-34.728-25.016-11.016-18.086-17.084-42.283-17.084-68.134v-14.566a71.074 71.074 0 0 0 21.378 3.279h305.419a71.072 71.072 0 0 0 21.377-3.279v14.566c0 25.851-6.067 50.048-17.083 68.134C160.732-8.884 148.399 0 135.831 0H35" style="stroke-width:15;stroke-linecap:round;stroke-linejoin:round;stroke-miterlimit:10;stroke-dasharray:none;stroke-opacity:1" transform="translate(238.5 406.235)" fill="none" stroke="#050402" stroke-width="15" stroke-linecap="round" stroke-linejoin="round" stroke-miterlimit="10" stroke-dasharray="none" stroke-opacity="" data-original="#050402" class=""></path><path d="M0 0v3.518C0 42.94-32.254 75.195-71.677 75.195h-305.419c-39.423 0-71.678-32.255-71.678-71.677v-68.311c1.06.306 2.175.48 3.33.48h163.92c2.214 2.959 5.734 4.893 9.693 4.893h94.888c3.959 0 7.48-1.934 9.693-4.893H-3.33c1.155 0 2.27-.174 3.33-.48V-35" style="stroke-width:15;stroke-linecap:round;stroke-linejoin:round;stroke-miterlimit:10;stroke-dasharray:none;stroke-opacity:1" transform="translate(476.443 226.603)" fill="none" stroke="#050402" stroke-width="15" stroke-linecap="round" stroke-linejoin="round" stroke-miterlimit="10" stroke-dasharray="none" stroke-opacity="" data-original="#050402" class=""></path></g></g></svg>